<svg xmlns="http://www.w3.org/2000/svg" viewBox="0 0 72.58 79.78"><defs><style>.cls-1{fill:#0d72b9;}.cls-2{fill:#28a8e0;}.cls-3{fill:none;}.cls-4{fill:#f3f4f5;}.cls-5{fill:#e4e3e2;}</style></defs><title>Asset 5</title><g id="Layer_2" data-name="Layer 2"><g id="Layer_1-2" data-name="Layer 1"><polygon class="cls-1" points="0 0 72.58 0 66.28 71.38 36.29 79.78 6.6 71.98 0 0"/><polygon class="cls-2" points="35.29 5.6 64.88 5.6 59.68 65.58 35.29 72.38 35.29 5.6"/><polygon class="cls-3" points="45.03 50.7 46.23 39.1 35.29 39.1 35.29 53.6 45.03 50.7"/><polygon class="cls-3" points="36.14 21.21 35.29 21.21 35.29 21.56 36.14 21.21"/><polygon class="cls-4" points="35.29 12.41 35.29 21.21 36.14 21.21 56.83 21.21 56.83 21.21 57.63 12.41 35.29 12.41"/><polygon class="cls-4" points="35.29 39.1 46.23 39.1 45.03 50.7 35.29 53.6 35.29 62.57 53.73 57.5 55.93 30.41 36.34 30.41 35.29 30.4 35.29 39.1"/><polygon class="cls-5" points="13.84 21.21 35.29 21.21 35.29 12.41 12.94 12.41 13.84 21.21"/><polygon class="cls-5" points="35.29 53.6 25.54 50.6 24.74 43.8 15.84 43.6 17.14 57.5 35.29 62.57 35.29 62.57 35.29 53.6 35.29 53.6"/><polygon class="cls-5" points="36.14 21.21 35.29 21.56 14.64 30.21 15.54 39.1 35.29 39.1 35.29 30.4 36.34 30.41 56.83 21.21 36.14 21.21"/></g></g></svg>