<svg xmlns="http://www.w3.org/2000/svg" viewBox="0 0 71.58 78.69"><defs><style>.cls-1{fill:#f0d73b;}.cls-2{fill:#f6e596;}.cls-3{fill:#473f53;}</style></defs><title>Asset 6</title><g id="Layer_2" data-name="Layer 2"><g id="Layer_1-2" data-name="Layer 1"><polygon class="cls-1" points="0 0 71.58 0 65.37 70.41 35.79 78.69 6.51 71 0 0"/><polygon class="cls-2" points="35.77 5.04 64.96 5.04 59.83 64.2 35.77 70.91 35.77 5.04"/><path class="cls-3" d="M25.8,23.63h5.26V38.37c0,6.64-3.18,9-8.27,9a13.8,13.8,0,0,1-3.87-.55l.59-4.26a8.63,8.63,0,0,0,2.7.42c2.21,0,3.6-1,3.6-4.6Z"/><path class="cls-3" d="M40,41.29a12.76,12.76,0,0,0,5.6,1.39c2.32,0,3.55-1,3.55-2.45S48.08,38,45.39,37.12c-3.71-1.33-6.17-3.38-6.17-6.67,0-3.81,3.22-6.7,8.46-6.7a13.08,13.08,0,0,1,5.7,1.13l-1.13,4a10.46,10.46,0,0,0-4.64-1.06c-2.19,0-3.25,1-3.25,2.16,0,1.43,1.23,2.06,4.15,3.18,3.95,1.46,5.77,3.52,5.77,6.7,0,3.75-2.85,6.93-9,6.93A14.58,14.58,0,0,1,39,45.44Z"/></g></g></svg>