<?xml version="1.0" encoding="utf-8"?>
<!-- Generator: Adobe Illustrator 24.0.1, SVG Export Plug-In . SVG Version: 6.00 Build 0)  -->
<svg version="1.1" xmlns="http://www.w3.org/2000/svg" xmlns:xlink="http://www.w3.org/1999/xlink" x="0px" y="0px"
	 viewBox="0 0 1385 1385" style="enable-background:new 0 0 1385 1385;" xml:space="preserve">
<style type="text/css">
	.st0{fill-rule:evenodd;clip-rule:evenodd;fill:#FFFFFA;fill-opacity:5.000000e-02;}
	.st1{fill-rule:evenodd;clip-rule:evenodd;fill:#FFFFFA;}
	.st2{fill-rule:evenodd;clip-rule:evenodd;fill:#E6E6E6;fill-opacity:0.3;}
</style>
<g id="Layer_1">
	<g>
		<path class="st0" d="M692.4,1384.8c-93.3,0-184-18.4-269.6-54.6c-82.5-34.9-156.5-84.8-220-148.2
			c-63.5-63.5-113.3-137.5-148.2-220C18.4,876.4,0,785.7,0,692.4c0-93.3,18.4-184,54.6-269.6c34.9-82.5,84.8-156.5,148.2-220
			c63.5-63.5,137.5-113.3,220-148.2C508.4,18.4,599.1,0,692.4,0c93.3,0,184,18.4,269.6,54.6c82.5,34.9,156.5,84.8,220,148.2
			c63.5,63.5,113.3,137.5,148.2,220c36.2,85.6,54.6,176.3,54.6,269.6c0,93.3-18.4,184-54.6,269.6c-34.9,82.5-84.8,156.5-148.2,219.9
			c-63.5,63.5-137.5,113.3-220,148.2C876.4,1366.4,785.7,1384.8,692.4,1384.8"/>
		<path class="st0" d="M692.4,1314.8c-83.9,0-165.4-16.5-242.4-49.1c-74.1-31.4-140.7-76.2-197.7-133.2
			c-57-57-101.9-123.6-133.2-197.7C86.5,857.8,70,776.3,70,692.4C70,608.5,86.5,527,119.1,450c31.4-74.2,76.2-140.7,133.2-197.7
			c57-57,123.6-101.9,197.7-133.2C527,86.5,608.5,70,692.4,70c83.9,0,165.4,16.5,242.4,49.1c74.2,31.4,140.7,76.2,197.7,133.2
			c57.1,57.1,101.9,123.6,133.2,197.7c32.5,76.9,49.1,158.5,49.1,242.4c0,83.9-16.5,165.4-49.1,242.4
			c-31.4,74.1-76.2,140.7-133.2,197.7c-57,57-123.6,101.9-197.7,133.2C857.8,1298.3,776.3,1314.8,692.4,1314.8"/>
		<path class="st0" d="M692.4,1244.8c-74.5,0-146.8-14.6-215.1-43.5c-65.8-27.8-124.8-67.6-175.5-118.3
			c-50.6-50.6-90.4-109.7-118.3-175.5C154.6,839.2,140,766.9,140,692.4s14.6-146.8,43.5-215.1c27.8-65.8,67.6-124.9,118.3-175.5
			c50.6-50.6,109.7-90.4,175.5-118.3C545.6,154.6,618,140,692.4,140c74.5,0,146.8,14.6,215.1,43.5c65.8,27.8,124.9,67.6,175.5,118.3
			c50.6,50.6,90.4,109.7,118.3,175.5c28.9,68.3,43.5,140.6,43.5,215.1c0,74.5-14.6,146.8-43.5,215.1
			c-27.8,65.8-67.6,124.8-118.3,175.5c-50.6,50.6-109.7,90.4-175.5,118.3C839.2,1230.2,766.9,1244.8,692.4,1244.8"/>
		<path class="st0" d="M692.4,1174.8c-65,0-128.2-12.8-187.8-38c-57.5-24.3-109-59.1-153.3-103.3c-44.2-44.2-79-95.8-103.3-153.3
			c-25.2-59.6-38-122.8-38-187.8c0-65,12.8-128.2,38-187.8c24.3-57.5,59.1-109,103.3-153.3c44.2-44.2,95.8-79,153.3-103.3
			c59.6-25.2,122.8-38,187.8-38c65,0,128.2,12.8,187.8,38c57.5,24.3,109,59.1,153.3,103.3c44.2,44.2,79,95.8,103.3,153.3
			c25.2,59.6,38,122.8,38,187.8c0,65-12.8,128.2-38,187.8c-24.3,57.5-59.1,109-103.3,153.3c-44.2,44.2-95.8,79-153.3,103.3
			C820.6,1162,757.4,1174.8,692.4,1174.8"/>
		<path class="st0" d="M692.4,1104.8c-55.6,0-109.6-10.9-160.6-32.5c-49.1-20.8-93.2-50.5-131-88.3c-37.8-37.8-67.5-81.9-88.3-131
			C290.9,802,280,748,280,692.4c0-55.6,10.9-109.6,32.5-160.6c20.8-49.1,50.5-93.2,88.3-131c37.8-37.8,81.9-67.5,131-88.3
			c50.9-21.5,105-32.5,160.6-32.5S802,290.9,853,312.5c49.1,20.8,93.2,50.5,131,88.3c37.8,37.8,67.5,81.9,88.3,131
			c21.5,50.9,32.5,105,32.5,160.6c0,55.6-10.9,109.6-32.5,160.6c-20.8,49.1-50.5,93.2-88.3,131c-37.8,37.8-81.9,67.5-131,88.3
			C802,1093.9,748,1104.8,692.4,1104.8"/>
		<path class="st0" d="M692.4,1034.8c-46.2,0-91-9.1-133.3-26.9c-40.8-17.2-77.4-41.9-108.8-73.3c-31.4-31.4-56.1-68-73.4-108.8
			c-17.9-42.3-26.9-87.1-26.9-133.3c0-46.2,9.1-91,26.9-133.3c17.2-40.8,41.9-77.4,73.4-108.8c31.4-31.4,68-56.1,108.8-73.4
			c42.3-17.9,87.1-26.9,133.3-26.9s91,9.1,133.3,26.9c40.8,17.2,77.4,41.9,108.8,73.3c31.4,31.4,56.1,68,73.3,108.8
			c17.9,42.3,26.9,87.1,26.9,133.3c0,46.2-9.1,91-26.9,133.3c-17.2,40.8-41.9,77.4-73.3,108.8c-31.4,31.4-68,56.1-108.8,73.3
			C783.4,1025.7,738.6,1034.8,692.4,1034.8"/>
	</g>
	<g>
		<path class="st1" d="M964.4,692.5c0,150.4-122,272.4-272.4,272.4c-150.4,0-272.4-122-272.4-272.4s122-272.4,272.4-272.4
			C842.4,420.1,964.4,542.1,964.4,692.5"/>
		<path class="st2" d="M619,611.7c0,32.9-26.6,59.5-59.5,59.5c-32.9,0-59.5-26.6-59.5-59.5s26.6-59.5,59.5-59.5
			C592.3,552.2,619,578.8,619,611.7 M716.6,516.7c0,21-17,38.1-38.1,38.1s-38.1-17-38.1-38.1s17-38.1,38.1-38.1
			S716.6,495.7,716.6,516.7 M712.8,621.7c0,13.5-10.9,24.4-24.4,24.4c-13.5,0-24.4-10.9-24.4-24.4s10.9-24.4,24.4-24.4
			C701.9,597.3,712.8,608.2,712.8,621.7"/>
	</g>
</g>
<g id="Layer_2">
</g>
</svg>
