<svg id="Layer_2" data-name="Layer 2" xmlns="http://www.w3.org/2000/svg" viewBox="0 0 665.02 595.3"><defs><style>.cls-1{fill:#61dafb;}</style></defs><path class="cls-1" d="M756.12,297.72c0-44.28-55.17-86.25-139.76-112.28C635.88,98.79,627.21,29.84,589,7.77,580.17,2.59,569.87.14,558.62.14V30.52a31.32,31.32,0,0,1,15.45,3.54c18.43,10.63,26.43,51.1,20.2,103.15-1.49,12.81-3.93,26.3-6.92,40.06a653.51,653.51,0,0,0-86.07-14.85,664.1,664.1,0,0,0-56.39-68.13C489.08,53,530.56,30.38,558.75,30.38V0h0c-37.27,0-86.07,26.71-135.41,73C374,27,325.2.55,287.92.55V30.93c28.06,0,69.67,22.48,113.86,63.5a642.63,642.63,0,0,0-56,68,631.19,631.19,0,0,0-86.21,15c-3.12-13.62-5.42-26.84-7-39.51-6.37-52,1.49-92.52,19.79-103.28,4.07-2.45,9.36-3.54,15.59-3.54V.68h0c-11.39,0-21.69,2.45-30.63,7.63-38.09,22.07-46.63,90.88-27,177.27C146,211.74,91.1,253.57,91.1,297.72S146.27,384,230.85,410C211.33,496.65,220,565.6,258.23,587.67c8.82,5.18,19.12,7.63,30.5,7.63,37.28,0,86.08-26.71,135.42-73,49.34,46.05,98.14,72.48,135.42,72.48,11.38,0,21.68-2.45,30.63-7.63,38.09-22.07,46.63-90.88,27-177.26C701.22,383.83,756.12,341.86,756.12,297.72ZM579.63,206.84c-5,17.57-11.25,35.69-18.3,53.82-5.56-10.9-11.39-21.8-17.76-32.7s-12.88-21.53-19.52-31.89C543.3,198.93,561.87,202.48,579.63,206.84ZM517.54,352C507,370.34,496.13,387.78,484.88,404c-20.2,1.77-40.67,2.72-61.27,2.72s-40.94-1-61-2.59c-11.25-16.21-22.23-33.52-32.8-51.77-10.31-17.85-19.66-36-28.2-54.23,8.41-18.26,17.89-36.52,28.06-54.37,10.57-18.39,21.42-35.83,32.67-52,20.2-1.77,40.66-2.72,61.27-2.72s40.93.95,61,2.59q16.88,24.31,32.8,51.77c10.3,17.85,19.65,36,28.19,54.23C537.06,315.84,527.71,334.1,517.54,352Zm43.79-17.72c7.32,18.26,13.55,36.52,18.7,54.23-17.75,4.36-36.46,8-55.84,10.9,6.64-10.49,13.28-21.25,19.52-32.29S555.77,345.14,561.33,334.23ZM423.88,479.62A560.14,560.14,0,0,1,386.2,436c12.2.54,24.67,1,37.27,1s25.35-.27,37.69-1A531.52,531.52,0,0,1,423.88,479.62ZM323,399.36c-19.25-2.86-37.82-6.4-55.58-10.76,5-17.58,11.25-35.7,18.3-53.82,5.56,10.9,11.39,21.8,17.76,32.7S316.39,389,323,399.36ZM423.2,115.82a560.14,560.14,0,0,1,37.68,43.6c-12.2-.55-24.67-.95-37.27-.95s-25.35.27-37.69.95A531.52,531.52,0,0,1,423.2,115.82ZM322.89,196.07c-6.64,10.49-13.28,21.26-19.52,32.29s-12.06,21.8-17.62,32.71c-7.32-18.26-13.55-36.52-18.7-54.23C284.8,202.61,303.51,198.93,322.89,196.07ZM200.22,366.66c-48-20.57-79-47.55-79-68.94s31-48.51,79-69c11.66-5,24.4-9.54,37.55-13.76a655,655,0,0,0,30.5,83,645.81,645.81,0,0,0-30.1,82.57C224.75,376.34,212,371.7,200.22,366.66Zm72.93,194.71c-18.44-10.63-26.44-51.09-20.2-103.14,1.49-12.81,3.93-26.3,6.91-40.06A654,654,0,0,0,345.94,433a662.81,662.81,0,0,0,56.39,68.13c-44.19,41.28-85.67,63.9-113.87,63.9C282.36,564.92,277.21,563.69,273.15,561.37ZM594.67,457.55c6.37,52.05-1.49,92.51-19.79,103.28-4.06,2.45-9.35,3.54-15.59,3.54-28,0-69.67-22.48-113.86-63.5a640.19,640.19,0,0,0,56-68,631.07,631.07,0,0,0,86.22-15A384.42,384.42,0,0,1,594.67,457.55Zm52.19-90.89c-11.66,5-24.4,9.54-37.55,13.77a654.4,654.4,0,0,0-30.5-83,648,648,0,0,0,30.1-82.58c13.42,4.23,26.16,8.86,38.09,13.9,48,20.58,79,47.56,79,69S694.85,346.23,646.86,366.66Z" transform="translate(-91.1)"/><path class="cls-1" d="M287.78.55Z" transform="translate(-91.1)"/><ellipse class="cls-1" cx="332.37" cy="297.72" rx="61.95" ry="62.27"/><path class="cls-1" d="M558.48.14Z" transform="translate(-91.1)"/></svg>